<?xml version="1.0" encoding="utf-8" standalone="no"?>
<!DOCTYPE svg PUBLIC "-//W3C//DTD SVG 1.1//EN"
  "http://www.w3.org/Graphics/SVG/1.1/DTD/svg11.dtd">
<svg xmlns:xlink="http://www.w3.org/1999/xlink" width="720pt" height="576pt" viewBox="0 0 720 576" xmlns="http://www.w3.org/2000/svg" version="1.1">
 <metadata>
  <rdf:RDF xmlns:dc="http://purl.org/dc/elements/1.1/" xmlns:cc="http://creativecommons.org/ns#" xmlns:rdf="http://www.w3.org/1999/02/22-rdf-syntax-ns#">
   <cc:Work>
    <dc:type rdf:resource="http://purl.org/dc/dcmitype/StillImage"/>
    <dc:date>2023-09-21T21:13:17.758632</dc:date>
    <dc:format>image/svg+xml</dc:format>
    <dc:creator>
     <cc:Agent>
      <dc:title>Matplotlib v3.7.2, https://matplotlib.org/</dc:title>
     </cc:Agent>
    </dc:creator>
   </cc:Work>
  </rdf:RDF>
 </metadata>
 <defs>
  <style type="text/css">*{stroke-linejoin: round; stroke-linecap: butt}</style>
 </defs>
 <g id="figure_1">
  <g id="patch_1">
   <path d="M 0 576 
L 720 576 
L 720 0 
L 0 0 
z
" style="fill: #ffffff"/>
  </g>
  <g id="axes_1">
   <g id="patch_2">
    <path d="M 429.84 44.455385 
L 487.144615 44.455385 
Q 505.052308 44.455385 505.052308 62.363077 
L 505.052308 119.667692 
Q 505.052308 137.575385 487.144615 137.575385 
L 429.84 137.575385 
Q 411.932308 137.575385 411.932308 119.667692 
L 411.932308 62.363077 
Q 411.932308 44.455385 429.84 44.455385 
z
" clip-path="url(#p000dbce041)" style="fill: #bb7676; stroke: #000000; stroke-linejoin: miter"/>
   </g>
   <g id="patch_3">
    <path d="M 528.332308 44.455385 
L 585.636923 44.455385 
Q 603.544615 44.455385 603.544615 62.363077 
L 603.544615 119.667692 
Q 603.544615 137.575385 585.636923 137.575385 
L 528.332308 137.575385 
Q 510.424615 137.575385 510.424615 119.667692 
L 510.424615 62.363077 
Q 510.424615 44.455385 528.332308 44.455385 
z
" clip-path="url(#p000dbce041)" style="fill: #ddbaba; stroke: #000000; stroke-linejoin: miter"/>
   </g>
   <g id="patch_4">
    <path d="M 626.824615 44.455385 
L 684.129231 44.455385 
Q 702.036923 44.455385 702.036923 62.363077 
L 702.036923 119.667692 
Q 702.036923 137.575385 684.129231 137.575385 
L 626.824615 137.575385 
Q 608.916923 137.575385 608.916923 119.667692 
L 608.916923 62.363077 
Q 608.916923 44.455385 626.824615 44.455385 
z
" clip-path="url(#p000dbce041)" style="fill: #993232; stroke: #000000; stroke-linejoin: miter"/>
   </g>
   <g id="patch_5">
    <path d="M 35.870769 142.947692 
L 93.175385 142.947692 
Q 111.083077 142.947692 111.083077 160.855385 
L 111.083077 218.16 
Q 111.083077 236.067692 93.175385 236.067692 
L 35.870769 236.067692 
Q 17.963077 236.067692 17.963077 218.16 
L 17.963077 160.855385 
Q 17.963077 142.947692 35.870769 142.947692 
z
" clip-path="url(#p000dbce041)" style="fill: #8ac1e1; stroke: #000000; stroke-linejoin: miter"/>
   </g>
   <g id="patch_6">
    <path d="M 134.363077 142.947692 
L 191.667692 142.947692 
Q 209.575385 142.947692 209.575385 160.855385 
L 209.575385 218.16 
Q 209.575385 236.067692 191.667692 236.067692 
L 134.363077 236.067692 
Q 116.455385 236.067692 116.455385 218.16 
L 116.455385 160.855385 
Q 116.455385 142.947692 134.363077 142.947692 
z
" clip-path="url(#p000dbce041)" style="fill: #a4cee8; stroke: #000000; stroke-linejoin: miter"/>
   </g>
   <g id="patch_7">
    <path d="M 232.855385 142.947692 
L 290.16 142.947692 
Q 308.067692 142.947692 308.067692 160.855385 
L 308.067692 218.16 
Q 308.067692 236.067692 290.16 236.067692 
L 232.855385 236.067692 
Q 214.947692 236.067692 214.947692 218.16 
L 214.947692 160.855385 
Q 214.947692 142.947692 232.855385 142.947692 
z
" clip-path="url(#p000dbce041)" style="fill: #a64c4c; stroke: #000000; stroke-linejoin: miter"/>
   </g>
   <g id="patch_8">
    <path d="M 331.347692 142.947692 
L 388.652308 142.947692 
Q 406.56 142.947692 406.56 160.855385 
L 406.56 218.16 
Q 406.56 236.067692 388.652308 236.067692 
L 331.347692 236.067692 
Q 313.44 236.067692 313.44 218.16 
L 313.44 160.855385 
Q 313.44 142.947692 331.347692 142.947692 
z
" clip-path="url(#p000dbce041)" style="fill: #5ea9d6; stroke: #000000; stroke-linejoin: miter"/>
   </g>
   <g id="patch_9">
    <path d="M 429.84 142.947692 
L 487.144615 142.947692 
Q 505.052308 142.947692 505.052308 160.855385 
L 505.052308 218.16 
Q 505.052308 236.067692 487.144615 236.067692 
L 429.84 236.067692 
Q 411.932308 236.067692 411.932308 218.16 
L 411.932308 160.855385 
Q 411.932308 142.947692 429.84 142.947692 
z
" clip-path="url(#p000dbce041)" style="fill: #810202; stroke: #000000; stroke-linejoin: miter"/>
   </g>
   <g id="patch_10">
    <path d="M 528.332308 142.947692 
L 585.636923 142.947692 
Q 603.544615 142.947692 603.544615 160.855385 
L 603.544615 218.16 
Q 603.544615 236.067692 585.636923 236.067692 
L 528.332308 236.067692 
Q 510.424615 236.067692 510.424615 218.16 
L 510.424615 160.855385 
Q 510.424615 142.947692 528.332308 142.947692 
z
" clip-path="url(#p000dbce041)" style="fill: #cae3f1; stroke: #000000; stroke-linejoin: miter"/>
   </g>
   <g id="patch_11">
    <path d="M 626.824615 142.947692 
L 684.129231 142.947692 
Q 702.036923 142.947692 702.036923 160.855385 
L 702.036923 218.16 
Q 702.036923 236.067692 684.129231 236.067692 
L 626.824615 236.067692 
Q 608.916923 236.067692 608.916923 218.16 
L 608.916923 160.855385 
Q 608.916923 142.947692 626.824615 142.947692 
z
" clip-path="url(#p000dbce041)" style="fill: #d0e6f3; stroke: #000000; stroke-linejoin: miter"/>
   </g>
   <g id="patch_12">
    <path d="M 35.870769 241.44 
L 93.175385 241.44 
Q 111.083077 241.44 111.083077 259.347692 
L 111.083077 316.652308 
Q 111.083077 334.56 93.175385 334.56 
L 35.870769 334.56 
Q 17.963077 334.56 17.963077 316.652308 
L 17.963077 259.347692 
Q 17.963077 241.44 35.870769 241.44 
z
" clip-path="url(#p000dbce041)" style="fill: #a74e4e; stroke: #000000; stroke-linejoin: miter"/>
   </g>
   <g id="patch_13">
    <path d="M 134.363077 241.44 
L 191.667692 241.44 
Q 209.575385 241.44 209.575385 259.347692 
L 209.575385 316.652308 
Q 209.575385 334.56 191.667692 334.56 
L 134.363077 334.56 
Q 116.455385 334.56 116.455385 316.652308 
L 116.455385 259.347692 
Q 116.455385 241.44 134.363077 241.44 
z
" clip-path="url(#p000dbce041)" style="fill: #b2d6eb; stroke: #000000; stroke-linejoin: miter"/>
   </g>
   <g id="patch_14">
    <path d="M 232.855385 241.44 
L 290.16 241.44 
Q 308.067692 241.44 308.067692 259.347692 
L 308.067692 316.652308 
Q 308.067692 334.56 290.16 334.56 
L 232.855385 334.56 
Q 214.947692 334.56 214.947692 316.652308 
L 214.947692 259.347692 
Q 214.947692 241.44 232.855385 241.44 
z
" clip-path="url(#p000dbce041)" style="fill: #d2e7f4; stroke: #000000; stroke-linejoin: miter"/>
   </g>
   <g id="patch_15">
    <path d="M 331.347692 241.44 
L 388.652308 241.44 
Q 406.56 241.44 406.56 259.347692 
L 406.56 316.652308 
Q 406.56 334.56 388.652308 334.56 
L 331.347692 334.56 
Q 313.44 334.56 313.44 316.652308 
L 313.44 259.347692 
Q 313.44 241.44 331.347692 241.44 
z
" clip-path="url(#p000dbce041)" style="fill: #f0f7fb; stroke: #000000; stroke-linejoin: miter"/>
   </g>
   <g id="patch_16">
    <path d="M 429.84 241.44 
L 487.144615 241.44 
Q 505.052308 241.44 505.052308 259.347692 
L 505.052308 316.652308 
Q 505.052308 334.56 487.144615 334.56 
L 429.84 334.56 
Q 411.932308 334.56 411.932308 316.652308 
L 411.932308 259.347692 
Q 411.932308 241.44 429.84 241.44 
z
" clip-path="url(#p000dbce041)" style="fill: #8a1414; stroke: #000000; stroke-linejoin: miter"/>
   </g>
   <g id="patch_17">
    <path d="M 528.332308 241.44 
L 585.636923 241.44 
Q 603.544615 241.44 603.544615 259.347692 
L 603.544615 316.652308 
Q 603.544615 334.56 585.636923 334.56 
L 528.332308 334.56 
Q 510.424615 334.56 510.424615 316.652308 
L 510.424615 259.347692 
Q 510.424615 241.44 528.332308 241.44 
z
" clip-path="url(#p000dbce041)" style="fill: #d2a4a4; stroke: #000000; stroke-linejoin: miter"/>
   </g>
   <g id="patch_18">
    <path d="M 626.824615 241.44 
L 684.129231 241.44 
Q 702.036923 241.44 702.036923 259.347692 
L 702.036923 316.652308 
Q 702.036923 334.56 684.129231 334.56 
L 626.824615 334.56 
Q 608.916923 334.56 608.916923 316.652308 
L 608.916923 259.347692 
Q 608.916923 241.44 626.824615 241.44 
z
" clip-path="url(#p000dbce041)" style="fill: #830606; stroke: #000000; stroke-linejoin: miter"/>
   </g>
   <g id="patch_19">
    <path d="M 35.870769 339.932308 
L 93.175385 339.932308 
Q 111.083077 339.932308 111.083077 357.84 
L 111.083077 415.144615 
Q 111.083077 433.052308 93.175385 433.052308 
L 35.870769 433.052308 
Q 17.963077 433.052308 17.963077 415.144615 
L 17.963077 357.84 
Q 17.963077 339.932308 35.870769 339.932308 
z
" clip-path="url(#p000dbce041)" style="fill: #d5aaaa; stroke: #000000; stroke-linejoin: miter"/>
   </g>
   <g id="patch_20">
    <path d="M 134.363077 339.932308 
L 191.667692 339.932308 
Q 209.575385 339.932308 209.575385 357.84 
L 209.575385 415.144615 
Q 209.575385 433.052308 191.667692 433.052308 
L 134.363077 433.052308 
Q 116.455385 433.052308 116.455385 415.144615 
L 116.455385 357.84 
Q 116.455385 339.932308 134.363077 339.932308 
z
" clip-path="url(#p000dbce041)" style="fill: #cee5f3; stroke: #000000; stroke-linejoin: miter"/>
   </g>
   <g id="patch_21">
    <path d="M 232.855385 339.932308 
L 290.16 339.932308 
Q 308.067692 339.932308 308.067692 357.84 
L 308.067692 415.144615 
Q 308.067692 433.052308 290.16 433.052308 
L 232.855385 433.052308 
Q 214.947692 433.052308 214.947692 415.144615 
L 214.947692 357.84 
Q 214.947692 339.932308 232.855385 339.932308 
z
" clip-path="url(#p000dbce041)" style="fill: #902020; stroke: #000000; stroke-linejoin: miter"/>
   </g>
   <g id="patch_22">
    <path d="M 331.347692 339.932308 
L 388.652308 339.932308 
Q 406.56 339.932308 406.56 357.84 
L 406.56 415.144615 
Q 406.56 433.052308 388.652308 433.052308 
L 331.347692 433.052308 
Q 313.44 433.052308 313.44 415.144615 
L 313.44 357.84 
Q 313.44 339.932308 331.347692 339.932308 
z
" clip-path="url(#p000dbce041)" style="fill: #e9d2d2; stroke: #000000; stroke-linejoin: miter"/>
   </g>
   <g id="patch_23">
    <path d="M 429.84 339.932308 
L 487.144615 339.932308 
Q 505.052308 339.932308 505.052308 357.84 
L 505.052308 415.144615 
Q 505.052308 433.052308 487.144615 433.052308 
L 429.84 433.052308 
Q 411.932308 433.052308 411.932308 415.144615 
L 411.932308 357.84 
Q 411.932308 339.932308 429.84 339.932308 
z
" clip-path="url(#p000dbce041)" style="fill: #f2e4e4; stroke: #000000; stroke-linejoin: miter"/>
   </g>
   <g id="patch_24">
    <path d="M 528.332308 339.932308 
L 585.636923 339.932308 
Q 603.544615 339.932308 603.544615 357.84 
L 603.544615 415.144615 
Q 603.544615 433.052308 585.636923 433.052308 
L 528.332308 433.052308 
Q 510.424615 433.052308 510.424615 415.144615 
L 510.424615 357.84 
Q 510.424615 339.932308 528.332308 339.932308 
z
" clip-path="url(#p000dbce041)" style="fill: #902020; stroke: #000000; stroke-linejoin: miter"/>
   </g>
   <g id="patch_25">
    <path d="M 626.824615 339.932308 
L 684.129231 339.932308 
Q 702.036923 339.932308 702.036923 357.84 
L 702.036923 415.144615 
Q 702.036923 433.052308 684.129231 433.052308 
L 626.824615 433.052308 
Q 608.916923 433.052308 608.916923 415.144615 
L 608.916923 357.84 
Q 608.916923 339.932308 626.824615 339.932308 
z
" clip-path="url(#p000dbce041)" style="fill: #f6ecec; stroke: #000000; stroke-linejoin: miter"/>
   </g>
   <g id="patch_26">
    <path d="M 35.870769 438.424615 
L 93.175385 438.424615 
Q 111.083077 438.424615 111.083077 456.332308 
L 111.083077 513.636923 
Q 111.083077 531.544615 93.175385 531.544615 
L 35.870769 531.544615 
Q 17.963077 531.544615 17.963077 513.636923 
L 17.963077 456.332308 
Q 17.963077 438.424615 35.870769 438.424615 
z
" clip-path="url(#p000dbce041)" style="fill: #8d1a1a; stroke: #000000; stroke-linejoin: miter"/>
   </g>
   <g id="patch_27">
    <path d="M 134.363077 438.424615 
L 191.667692 438.424615 
Q 209.575385 438.424615 209.575385 456.332308 
L 209.575385 513.636923 
Q 209.575385 531.544615 191.667692 531.544615 
L 134.363077 531.544615 
Q 116.455385 531.544615 116.455385 513.636923 
L 116.455385 456.332308 
Q 116.455385 438.424615 134.363077 438.424615 
z
" clip-path="url(#p000dbce041)" style="fill: #aad2e9; stroke: #000000; stroke-linejoin: miter"/>
   </g>
   <g id="patch_28">
    <path d="M 232.855385 438.424615 
L 290.16 438.424615 
Q 308.067692 438.424615 308.067692 456.332308 
L 308.067692 513.636923 
Q 308.067692 531.544615 290.16 531.544615 
L 232.855385 531.544615 
Q 214.947692 531.544615 214.947692 513.636923 
L 214.947692 456.332308 
Q 214.947692 438.424615 232.855385 438.424615 
z
" clip-path="url(#p000dbce041)" style="fill: #e2f0f8; stroke: #000000; stroke-linejoin: miter"/>
   </g>
   <g id="patch_29">
    <path d="M 331.347692 438.424615 
L 388.652308 438.424615 
Q 406.56 438.424615 406.56 456.332308 
L 406.56 513.636923 
Q 406.56 531.544615 388.652308 531.544615 
L 331.347692 531.544615 
Q 313.44 531.544615 313.44 513.636923 
L 313.44 456.332308 
Q 313.44 438.424615 331.347692 438.424615 
z
" clip-path="url(#p000dbce041)" style="fill: #ead4d4; stroke: #000000; stroke-linejoin: miter"/>
   </g>
   <g id="patch_30">
    <path d="M 429.84 438.424615 
L 487.144615 438.424615 
Q 505.052308 438.424615 505.052308 456.332308 
L 505.052308 513.636923 
Q 505.052308 531.544615 487.144615 531.544615 
L 429.84 531.544615 
Q 411.932308 531.544615 411.932308 513.636923 
L 411.932308 456.332308 
Q 411.932308 438.424615 429.84 438.424615 
z
" clip-path="url(#p000dbce041)" style="fill: #82bcdf; stroke: #000000; stroke-linejoin: miter"/>
   </g>
   <g id="patch_31">
    <path d="M 528.332308 438.424615 
L 585.636923 438.424615 
Q 603.544615 438.424615 603.544615 456.332308 
L 603.544615 513.636923 
Q 603.544615 531.544615 585.636923 531.544615 
L 528.332308 531.544615 
Q 510.424615 531.544615 510.424615 513.636923 
L 510.424615 456.332308 
Q 510.424615 438.424615 528.332308 438.424615 
z
" clip-path="url(#p000dbce041)" style="fill: #60aad6; stroke: #000000; stroke-linejoin: miter"/>
   </g>
   <g id="text_1">
    <!-- 1 -->
    <g transform="translate(453.720433 95.154447) scale(0.15 -0.15)">
     <defs>
      <path id="DejaVuSans-31" d="M 794 531 
L 1825 531 
L 1825 4091 
L 703 3866 
L 703 4441 
L 1819 4666 
L 2450 4666 
L 2450 531 
L 3481 531 
L 3481 0 
L 794 0 
L 794 531 
z
" transform="scale(0.015625)"/>
     </defs>
     <use xlink:href="#DejaVuSans-31"/>
    </g>
   </g>
   <g id="text_2">
    <!-- 2 -->
    <g transform="translate(552.21274 95.154447) scale(0.15 -0.15)">
     <defs>
      <path id="DejaVuSans-32" d="M 1228 531 
L 3431 531 
L 3431 0 
L 469 0 
L 469 531 
Q 828 903 1448 1529 
Q 2069 2156 2228 2338 
Q 2531 2678 2651 2914 
Q 2772 3150 2772 3378 
Q 2772 3750 2511 3984 
Q 2250 4219 1831 4219 
Q 1534 4219 1204 4116 
Q 875 4013 500 3803 
L 500 4441 
Q 881 4594 1212 4672 
Q 1544 4750 1819 4750 
Q 2544 4750 2975 4387 
Q 3406 4025 3406 3419 
Q 3406 3131 3298 2873 
Q 3191 2616 2906 2266 
Q 2828 2175 2409 1742 
Q 1991 1309 1228 531 
z
" transform="scale(0.015625)"/>
     </defs>
     <use xlink:href="#DejaVuSans-32"/>
    </g>
   </g>
   <g id="text_3">
    <!-- 3 -->
    <g transform="translate(650.705048 95.154447) scale(0.15 -0.15)">
     <defs>
      <path id="DejaVuSans-33" d="M 2597 2516 
Q 3050 2419 3304 2112 
Q 3559 1806 3559 1356 
Q 3559 666 3084 287 
Q 2609 -91 1734 -91 
Q 1441 -91 1130 -33 
Q 819 25 488 141 
L 488 750 
Q 750 597 1062 519 
Q 1375 441 1716 441 
Q 2309 441 2620 675 
Q 2931 909 2931 1356 
Q 2931 1769 2642 2001 
Q 2353 2234 1838 2234 
L 1294 2234 
L 1294 2753 
L 1863 2753 
Q 2328 2753 2575 2939 
Q 2822 3125 2822 3475 
Q 2822 3834 2567 4026 
Q 2313 4219 1838 4219 
Q 1578 4219 1281 4162 
Q 984 4106 628 3988 
L 628 4550 
Q 988 4650 1302 4700 
Q 1616 4750 1894 4750 
Q 2613 4750 3031 4423 
Q 3450 4097 3450 3541 
Q 3450 3153 3228 2886 
Q 3006 2619 2597 2516 
z
" transform="scale(0.015625)"/>
     </defs>
     <use xlink:href="#DejaVuSans-33"/>
    </g>
   </g>
   <g id="text_4">
    <!-- 4 -->
    <g transform="translate(59.751202 193.646755) scale(0.15 -0.15)">
     <defs>
      <path id="DejaVuSans-34" d="M 2419 4116 
L 825 1625 
L 2419 1625 
L 2419 4116 
z
M 2253 4666 
L 3047 4666 
L 3047 1625 
L 3713 1625 
L 3713 1100 
L 3047 1100 
L 3047 0 
L 2419 0 
L 2419 1100 
L 313 1100 
L 313 1709 
L 2253 4666 
z
" transform="scale(0.015625)"/>
     </defs>
     <use xlink:href="#DejaVuSans-34"/>
    </g>
   </g>
   <g id="text_5">
    <!-- 5 -->
    <g transform="translate(158.24351 193.646755) scale(0.15 -0.15)">
     <defs>
      <path id="DejaVuSans-35" d="M 691 4666 
L 3169 4666 
L 3169 4134 
L 1269 4134 
L 1269 2991 
Q 1406 3038 1543 3061 
Q 1681 3084 1819 3084 
Q 2600 3084 3056 2656 
Q 3513 2228 3513 1497 
Q 3513 744 3044 326 
Q 2575 -91 1722 -91 
Q 1428 -91 1123 -41 
Q 819 9 494 109 
L 494 744 
Q 775 591 1075 516 
Q 1375 441 1709 441 
Q 2250 441 2565 725 
Q 2881 1009 2881 1497 
Q 2881 1984 2565 2268 
Q 2250 2553 1709 2553 
Q 1456 2553 1204 2497 
Q 953 2441 691 2322 
L 691 4666 
z
" transform="scale(0.015625)"/>
     </defs>
     <use xlink:href="#DejaVuSans-35"/>
    </g>
   </g>
   <g id="text_6">
    <!-- 6 -->
    <g transform="translate(256.735817 193.646755) scale(0.15 -0.15)">
     <defs>
      <path id="DejaVuSans-36" d="M 2113 2584 
Q 1688 2584 1439 2293 
Q 1191 2003 1191 1497 
Q 1191 994 1439 701 
Q 1688 409 2113 409 
Q 2538 409 2786 701 
Q 3034 994 3034 1497 
Q 3034 2003 2786 2293 
Q 2538 2584 2113 2584 
z
M 3366 4563 
L 3366 3988 
Q 3128 4100 2886 4159 
Q 2644 4219 2406 4219 
Q 1781 4219 1451 3797 
Q 1122 3375 1075 2522 
Q 1259 2794 1537 2939 
Q 1816 3084 2150 3084 
Q 2853 3084 3261 2657 
Q 3669 2231 3669 1497 
Q 3669 778 3244 343 
Q 2819 -91 2113 -91 
Q 1303 -91 875 529 
Q 447 1150 447 2328 
Q 447 3434 972 4092 
Q 1497 4750 2381 4750 
Q 2619 4750 2861 4703 
Q 3103 4656 3366 4563 
z
" transform="scale(0.015625)"/>
     </defs>
     <use xlink:href="#DejaVuSans-36"/>
    </g>
   </g>
   <g id="text_7">
    <!-- 7 -->
    <g transform="translate(355.228125 193.646755) scale(0.15 -0.15)">
     <defs>
      <path id="DejaVuSans-37" d="M 525 4666 
L 3525 4666 
L 3525 4397 
L 1831 0 
L 1172 0 
L 2766 4134 
L 525 4134 
L 525 4666 
z
" transform="scale(0.015625)"/>
     </defs>
     <use xlink:href="#DejaVuSans-37"/>
    </g>
   </g>
   <g id="text_8">
    <!-- 8 -->
    <g transform="translate(453.720433 193.646755) scale(0.15 -0.15)">
     <defs>
      <path id="DejaVuSans-38" d="M 2034 2216 
Q 1584 2216 1326 1975 
Q 1069 1734 1069 1313 
Q 1069 891 1326 650 
Q 1584 409 2034 409 
Q 2484 409 2743 651 
Q 3003 894 3003 1313 
Q 3003 1734 2745 1975 
Q 2488 2216 2034 2216 
z
M 1403 2484 
Q 997 2584 770 2862 
Q 544 3141 544 3541 
Q 544 4100 942 4425 
Q 1341 4750 2034 4750 
Q 2731 4750 3128 4425 
Q 3525 4100 3525 3541 
Q 3525 3141 3298 2862 
Q 3072 2584 2669 2484 
Q 3125 2378 3379 2068 
Q 3634 1759 3634 1313 
Q 3634 634 3220 271 
Q 2806 -91 2034 -91 
Q 1263 -91 848 271 
Q 434 634 434 1313 
Q 434 1759 690 2068 
Q 947 2378 1403 2484 
z
M 1172 3481 
Q 1172 3119 1398 2916 
Q 1625 2713 2034 2713 
Q 2441 2713 2670 2916 
Q 2900 3119 2900 3481 
Q 2900 3844 2670 4047 
Q 2441 4250 2034 4250 
Q 1625 4250 1398 4047 
Q 1172 3844 1172 3481 
z
" transform="scale(0.015625)"/>
     </defs>
     <use xlink:href="#DejaVuSans-38"/>
    </g>
   </g>
   <g id="text_9">
    <!-- 9 -->
    <g transform="translate(552.21274 193.646755) scale(0.15 -0.15)">
     <defs>
      <path id="DejaVuSans-39" d="M 703 97 
L 703 672 
Q 941 559 1184 500 
Q 1428 441 1663 441 
Q 2288 441 2617 861 
Q 2947 1281 2994 2138 
Q 2813 1869 2534 1725 
Q 2256 1581 1919 1581 
Q 1219 1581 811 2004 
Q 403 2428 403 3163 
Q 403 3881 828 4315 
Q 1253 4750 1959 4750 
Q 2769 4750 3195 4129 
Q 3622 3509 3622 2328 
Q 3622 1225 3098 567 
Q 2575 -91 1691 -91 
Q 1453 -91 1209 -44 
Q 966 3 703 97 
z
M 1959 2075 
Q 2384 2075 2632 2365 
Q 2881 2656 2881 3163 
Q 2881 3666 2632 3958 
Q 2384 4250 1959 4250 
Q 1534 4250 1286 3958 
Q 1038 3666 1038 3163 
Q 1038 2656 1286 2365 
Q 1534 2075 1959 2075 
z
" transform="scale(0.015625)"/>
     </defs>
     <use xlink:href="#DejaVuSans-39"/>
    </g>
   </g>
   <g id="text_10">
    <!-- 10 -->
    <g transform="translate(645.933173 193.646755) scale(0.15 -0.15)">
     <defs>
      <path id="DejaVuSans-30" d="M 2034 4250 
Q 1547 4250 1301 3770 
Q 1056 3291 1056 2328 
Q 1056 1369 1301 889 
Q 1547 409 2034 409 
Q 2525 409 2770 889 
Q 3016 1369 3016 2328 
Q 3016 3291 2770 3770 
Q 2525 4250 2034 4250 
z
M 2034 4750 
Q 2819 4750 3233 4129 
Q 3647 3509 3647 2328 
Q 3647 1150 3233 529 
Q 2819 -91 2034 -91 
Q 1250 -91 836 529 
Q 422 1150 422 2328 
Q 422 3509 836 4129 
Q 1250 4750 2034 4750 
z
" transform="scale(0.015625)"/>
     </defs>
     <use xlink:href="#DejaVuSans-31"/>
     <use xlink:href="#DejaVuSans-30" x="63.623047"/>
    </g>
   </g>
   <g id="text_11">
    <!-- 11 -->
    <g transform="translate(54.979327 292.139063) scale(0.15 -0.15)">
     <use xlink:href="#DejaVuSans-31"/>
     <use xlink:href="#DejaVuSans-31" x="63.623047"/>
    </g>
   </g>
   <g id="text_12">
    <!-- 12 -->
    <g transform="translate(153.471635 292.139063) scale(0.15 -0.15)">
     <use xlink:href="#DejaVuSans-31"/>
     <use xlink:href="#DejaVuSans-32" x="63.623047"/>
    </g>
   </g>
   <g id="text_13">
    <!-- 13 -->
    <g transform="translate(251.963942 292.139063) scale(0.15 -0.15)">
     <use xlink:href="#DejaVuSans-31"/>
     <use xlink:href="#DejaVuSans-33" x="63.623047"/>
    </g>
   </g>
   <g id="text_14">
    <!-- 14 -->
    <g transform="translate(350.45625 292.139063) scale(0.15 -0.15)">
     <use xlink:href="#DejaVuSans-31"/>
     <use xlink:href="#DejaVuSans-34" x="63.623047"/>
    </g>
   </g>
   <g id="text_15">
    <!-- 15 -->
    <g transform="translate(448.948558 292.139063) scale(0.15 -0.15)">
     <use xlink:href="#DejaVuSans-31"/>
     <use xlink:href="#DejaVuSans-35" x="63.623047"/>
    </g>
   </g>
   <g id="text_16">
    <!-- 16 -->
    <g transform="translate(547.440865 292.139063) scale(0.15 -0.15)">
     <use xlink:href="#DejaVuSans-31"/>
     <use xlink:href="#DejaVuSans-36" x="63.623047"/>
    </g>
   </g>
   <g id="text_17">
    <!-- 17 -->
    <g transform="translate(645.933173 292.139063) scale(0.15 -0.15)">
     <use xlink:href="#DejaVuSans-31"/>
     <use xlink:href="#DejaVuSans-37" x="63.623047"/>
    </g>
   </g>
   <g id="text_18">
    <!-- 18 -->
    <g transform="translate(54.979327 390.63137) scale(0.15 -0.15)">
     <use xlink:href="#DejaVuSans-31"/>
     <use xlink:href="#DejaVuSans-38" x="63.623047"/>
    </g>
   </g>
   <g id="text_19">
    <!-- 19 -->
    <g transform="translate(153.471635 390.63137) scale(0.15 -0.15)">
     <use xlink:href="#DejaVuSans-31"/>
     <use xlink:href="#DejaVuSans-39" x="63.623047"/>
    </g>
   </g>
   <g id="text_20">
    <!-- 20 -->
    <g transform="translate(251.963942 390.63137) scale(0.15 -0.15)">
     <use xlink:href="#DejaVuSans-32"/>
     <use xlink:href="#DejaVuSans-30" x="63.623047"/>
    </g>
   </g>
   <g id="text_21">
    <!-- 21 -->
    <g transform="translate(350.45625 390.63137) scale(0.15 -0.15)">
     <use xlink:href="#DejaVuSans-32"/>
     <use xlink:href="#DejaVuSans-31" x="63.623047"/>
    </g>
   </g>
   <g id="text_22">
    <!-- 22 -->
    <g transform="translate(448.948558 390.63137) scale(0.15 -0.15)">
     <use xlink:href="#DejaVuSans-32"/>
     <use xlink:href="#DejaVuSans-32" x="63.623047"/>
    </g>
   </g>
   <g id="text_23">
    <!-- 23 -->
    <g transform="translate(547.440865 390.63137) scale(0.15 -0.15)">
     <use xlink:href="#DejaVuSans-32"/>
     <use xlink:href="#DejaVuSans-33" x="63.623047"/>
    </g>
   </g>
   <g id="text_24">
    <!-- 24 -->
    <g transform="translate(645.933173 390.63137) scale(0.15 -0.15)">
     <use xlink:href="#DejaVuSans-32"/>
     <use xlink:href="#DejaVuSans-34" x="63.623047"/>
    </g>
   </g>
   <g id="text_25">
    <!-- 25 -->
    <g transform="translate(54.979327 489.123678) scale(0.15 -0.15)">
     <use xlink:href="#DejaVuSans-32"/>
     <use xlink:href="#DejaVuSans-35" x="63.623047"/>
    </g>
   </g>
   <g id="text_26">
    <!-- 26 -->
    <g transform="translate(153.471635 489.123678) scale(0.15 -0.15)">
     <use xlink:href="#DejaVuSans-32"/>
     <use xlink:href="#DejaVuSans-36" x="63.623047"/>
    </g>
   </g>
   <g id="text_27">
    <!-- 27 -->
    <g transform="translate(251.963942 489.123678) scale(0.15 -0.15)">
     <use xlink:href="#DejaVuSans-32"/>
     <use xlink:href="#DejaVuSans-37" x="63.623047"/>
    </g>
   </g>
   <g id="text_28">
    <!-- 28 -->
    <g transform="translate(350.45625 489.123678) scale(0.15 -0.15)">
     <use xlink:href="#DejaVuSans-32"/>
     <use xlink:href="#DejaVuSans-38" x="63.623047"/>
    </g>
   </g>
   <g id="text_29">
    <!-- 29 -->
    <g transform="translate(448.948558 489.123678) scale(0.15 -0.15)">
     <use xlink:href="#DejaVuSans-32"/>
     <use xlink:href="#DejaVuSans-39" x="63.623047"/>
    </g>
   </g>
   <g id="text_30">
    <!-- 30 -->
    <g transform="translate(547.440865 489.123678) scale(0.15 -0.15)">
     <use xlink:href="#DejaVuSans-33"/>
     <use xlink:href="#DejaVuSans-30" x="63.623047"/>
    </g>
   </g>
  </g>
 </g>
 <defs>
  <clipPath id="p000dbce041">
   <rect x="10.8" y="37.292308" width="698.4" height="501.415385"/>
  </clipPath>
 </defs>
</svg>
