<?xml version="1.0" encoding="utf-8" standalone="no"?>
<!DOCTYPE svg PUBLIC "-//W3C//DTD SVG 1.1//EN"
  "http://www.w3.org/Graphics/SVG/1.1/DTD/svg11.dtd">
<svg xmlns:xlink="http://www.w3.org/1999/xlink" width="856.8pt" height="280.8pt" viewBox="0 0 856.8 280.8" xmlns="http://www.w3.org/2000/svg" version="1.1">
 <metadata>
  <rdf:RDF xmlns:dc="http://purl.org/dc/elements/1.1/" xmlns:cc="http://creativecommons.org/ns#" xmlns:rdf="http://www.w3.org/1999/02/22-rdf-syntax-ns#">
   <cc:Work>
    <dc:type rdf:resource="http://purl.org/dc/dcmitype/StillImage"/>
    <dc:date>2023-09-21T21:53:52.058019</dc:date>
    <dc:format>image/svg+xml</dc:format>
    <dc:creator>
     <cc:Agent>
      <dc:title>Matplotlib v3.7.2, https://matplotlib.org/</dc:title>
     </cc:Agent>
    </dc:creator>
   </cc:Work>
  </rdf:RDF>
 </metadata>
 <defs>
  <style type="text/css">*{stroke-linejoin: round; stroke-linecap: butt}</style>
 </defs>
 <g id="figure_1">
  <g id="patch_1">
   <path d="M 0 280.8 
L 856.8 280.8 
L 856.8 0 
L 0 0 
z
" style="fill: #ffffff"/>
  </g>
  <g id="axes_1">
   <g id="patch_2">
    <path d="M 7.2 273.6 
L 849.6 273.6 
L 849.6 7.2 
L 7.2 7.2 
z
" style="fill: #ffffff"/>
   </g>
   <g id="line2d_1">
    <path d="M 29.368421 39.972164 
L 73.705263 19.309091 
L 118.042105 104.504533 
L 162.378947 144.824017 
L 206.715789 204.376055 
L 251.052632 255.239005 
L 295.389474 261.490909 
L 339.726316 261.490909 
L 384.063158 261.490909 
L 428.4 261.490909 
" clip-path="url(#peb33be2626)" style="fill: none; stroke: #6528f7; stroke-width: 4.5; stroke-linecap: square"/>
   </g>
   <g id="line2d_2">
    <path d="M 384.063158 261.490909 
L 428.4 261.490909 
L 472.736842 261.490909 
L 517.073684 261.490909 
L 561.410526 261.490909 
L 605.747368 261.490909 
L 650.084211 261.490909 
L 694.421053 261.490909 
L 738.757895 261.490909 
L 783.094737 260.696175 
L 827.431579 232.138748 
L 857.8 195.19546 
" clip-path="url(#peb33be2626)" style="fill: none; stroke: #6528f7; stroke-opacity: 0.5; stroke-width: 4.5; stroke-linecap: square"/>
   </g>
   <g id="line2d_3">
    <path d="M 428.4 273.6 
L 428.4 7.2 
" clip-path="url(#peb33be2626)" style="fill: none; stroke-dasharray: 11.1,4.8; stroke-dashoffset: 0; stroke: #a61f69; stroke-width: 3"/>
   </g>
  </g>
 </g>
 <defs>
  <clipPath id="peb33be2626">
   <rect x="7.2" y="7.2" width="842.4" height="266.4"/>
  </clipPath>
 </defs>
</svg>
